<?xml version="1.0" standalone="no"?>
<!DOCTYPE svg PUBLIC "-//W3C//DTD SVG 20010904//EN"
 "http://www.w3.org/TR/2001/REC-SVG-20010904/DTD/svg10.dtd">
<svg version="1.0" xmlns="http://www.w3.org/2000/svg"
 width="45.000000pt" height="45.000000pt" viewBox="0 0 45.000000 45.000000"
 preserveAspectRatio="xMidYMid meet">
<metadata>
Created by potrace 1.16, written by Peter Selinger 2001-2019
</metadata>
<g transform="translate(0.000000,45.000000) scale(0.100000,-0.100000)"
fill="#000000" stroke="none">
<path d="M80 400 c-7 -28 -10 -56 -7 -64 15 -38 -28 -235 -57 -261 -6 -5 -12
-26 -14 -45 -3 -34 -3 -34 13 -15 9 11 14 14 10 8 -3 -7 -2 -13 3 -13 14 0 23
28 11 32 -10 3 9 71 44 162 10 28 11 28 19 7 4 -12 12 -20 17 -17 5 3 12 -1
15 -10 4 -9 9 -14 12 -11 4 3 -3 21 -15 40 -20 33 -20 37 -6 78 17 46 60 99
81 99 7 0 26 -20 43 -44 25 -38 27 -47 15 -57 -8 -6 -14 -20 -14 -30 0 -15 7
-19 34 -19 59 0 62 -20 13 -91 -39 -56 -48 -64 -74 -63 -20 1 -41 13 -61 33
l-30 32 -27 -56 c-22 -45 -26 -60 -17 -78 10 -21 11 -20 11 10 1 29 21 60 21
32 0 -21 13 -1 15 23 1 13 3 27 4 32 0 5 17 -6 36 -25 l35 -34 -21 -17 c-12
-10 -26 -15 -33 -11 -6 3 -5 0 2 -8 11 -12 19 -11 52 7 26 15 37 17 33 8 -3
-9 2 -14 12 -14 9 0 13 -4 10 -10 -4 -6 19 -10 61 -10 62 0 65 1 53 18 -13 16
-13 16 7 -1 28 -23 64 -23 64 2 0 14 -12 23 -42 33 -37 11 -45 19 -60 61 l-18
48 31 62 c30 58 31 64 20 110 -6 27 -11 64 -11 83 l0 34 -139 0 -139 0 -12
-50z"/>
</g>
</svg>
