<svg width="48" height="48" viewBox="0 0 48 48" fill="none" xmlns="http://www.w3.org/2000/svg">
<g filter="url(#filter0_d)">
<path fill-rule="evenodd" clip-rule="evenodd" d="M24 40C35.0457 40 44 31.0457 44 20C44 8.9543 35.0457 0 24 0C12.9543 0 4 8.9543 4 20C4 31.0457 12.9543 40 24 40Z" fill="#262626"/>
<path fill-rule="evenodd" clip-rule="evenodd" d="M24 11.5C26.3085 11.5 26.5979 11.5098 27.5045 11.5512C28.4093 11.5924 29.0272 11.7361 29.5678 11.9463C30.1268 12.1634 30.6008 12.4541 31.0734 12.9266C31.5459 13.3992 31.8366 13.8732 32.0538 14.4322C32.2639 14.9728 32.4076 15.5907 32.4488 16.4955C32.4902 17.4021 32.5 17.6915 32.5 20C32.5 22.3085 32.4902 22.5979 32.4488 23.5045C32.4076 24.4093 32.2639 25.0272 32.0538 25.5678C31.8366 26.1268 31.5459 26.6008 31.0734 27.0734C30.6008 27.5459 30.1268 27.8366 29.5678 28.0538C29.0272 28.2639 28.4093 28.4076 27.5045 28.4488C26.5979 28.4902 26.3085 28.5 24 28.5C21.6915 28.5 21.4021 28.4902 20.4955 28.4488C19.5907 28.4076 18.9728 28.2639 18.4322 28.0538C17.8732 27.8366 17.3992 27.5459 16.9266 27.0734C16.4541 26.6008 16.1634 26.1268 15.9463 25.5678C15.7361 25.0272 15.5924 24.4093 15.5512 23.5045C15.5098 22.5979 15.5 22.3085 15.5 20C15.5 17.6915 15.5098 17.4021 15.5512 16.4955C15.5924 15.5907 15.7361 14.9728 15.9463 14.4322C16.1634 13.8732 16.4541 13.3992 16.9266 12.9266C17.3992 12.4541 17.8732 12.1634 18.4322 11.9463C18.9728 11.7361 19.5907 11.5924 20.4955 11.5512C21.4021 11.5098 21.6915 11.5 24 11.5ZM23.9973 22.8298C25.5616 22.8298 26.8298 21.5616 26.8298 19.9973C26.8298 18.433 25.5616 17.1649 23.9973 17.1649C22.433 17.1649 21.1649 18.433 21.1649 19.9973C21.1649 21.5616 22.433 22.8298 23.9973 22.8298ZM23.9973 15.6338C26.4072 15.6338 28.3608 17.5874 28.3608 19.9973C28.3608 22.4072 26.4072 24.3608 23.9973 24.3608C21.5874 24.3608 19.6338 22.4072 19.6338 19.9973C19.6338 17.5874 21.5874 15.6338 23.9973 15.6338ZM29.8556 15.3722C29.8556 15.946 29.3904 16.4111 28.8166 16.4111C28.2429 16.4111 27.7778 15.946 27.7778 15.3722C27.7778 14.7985 28.2429 14.3333 28.8166 14.3333C29.3904 14.3333 29.8556 14.7985 29.8556 15.3722Z" fill="white"/>
</g>
<defs>
<filter id="filter0_d" x="0" y="0" width="48" height="48" filterUnits="userSpaceOnUse" color-interpolation-filters="sRGB">
<feFlood flood-opacity="0" result="BackgroundImageFix"/>
<feColorMatrix in="SourceAlpha" type="matrix" values="0 0 0 0 0 0 0 0 0 0 0 0 0 0 0 0 0 0 127 0"/>
<feOffset dy="4"/>
<feGaussianBlur stdDeviation="2"/>
<feColorMatrix type="matrix" values="0 0 0 0 0 0 0 0 0 0 0 0 0 0 0 0 0 0 0.25 0"/>
<feBlend mode="normal" in2="BackgroundImageFix" result="effect1_dropShadow"/>
<feBlend mode="normal" in="SourceGraphic" in2="effect1_dropShadow" result="shape"/>
</filter>
</defs>
</svg>
